# Blender 5.1.2
# www.blender.org
mtllib cube_fine2.mtl
o Cube
v 0.500000 0.500000 -0.500000
v 0.500000 -0.500000 -0.500000
v 0.500000 0.500000 0.500000
v 0.500000 -0.500000 0.500000
v -0.500000 0.500000 -0.500000
v -0.500000 -0.500000 -0.500000
v -0.500000 0.500000 0.500000
v -0.500000 -0.500000 0.500000
v -0.095691 -0.060818 0.065639
v -0.500000 -0.500000 -0.250000
v -0.500000 -0.500000 0.000000
v -0.500000 -0.500000 0.250000
v 0.500000 0.500000 -0.250000
v 0.500000 0.500000 0.000000
v 0.500000 0.500000 0.250000
v -0.500000 0.500000 0.250000
v -0.500000 0.500000 0.000000
v -0.500000 0.500000 -0.250000
v 0.500000 -0.500000 0.250000
v 0.500000 -0.500000 0.000000
v 0.500000 -0.500000 -0.250000
v 0.250000 -0.500000 -0.500000
v 0.000000 -0.500000 -0.500000
v -0.250000 -0.500000 -0.500000
v 0.250000 0.500000 0.500000
v 0.000000 0.500000 0.500000
v -0.250000 0.500000 0.500000
v -0.250000 -0.500000 0.500000
v 0.000000 -0.500000 0.500000
v 0.250000 -0.500000 0.500000
v -0.250000 0.500000 -0.500000
v 0.000000 0.500000 -0.500000
v 0.250000 0.500000 -0.500000
v 0.250000 -0.500000 -0.250000
v 0.000000 -0.500000 -0.250000
v -0.250000 -0.500000 -0.250000
v 0.250000 -0.500000 0.000000
v 0.000000 -0.500000 0.000000
v -0.250000 -0.500000 0.000000
v 0.250000 -0.500000 0.250000
v 0.000000 -0.500000 0.250000
v -0.250000 -0.500000 0.250000
v -0.250000 0.500000 -0.250000
v 0.000000 0.500000 -0.250000
v 0.250000 0.500000 -0.250000
v -0.250000 0.500000 0.000000
v 0.000000 0.500000 0.000000
v 0.250000 0.500000 0.000000
v -0.250000 0.500000 0.250000
v 0.000000 0.500000 0.250000
v 0.250000 0.500000 0.250000
v 0.500000 0.250000 -0.500000
v 0.500000 0.000000 -0.500000
v 0.500000 -0.250000 -0.500000
v -0.500000 -0.250000 0.500000
v -0.500000 0.000000 0.500000
v -0.500000 0.250000 0.500000
v 0.500000 0.250000 0.500000
v 0.500000 0.000000 0.500000
v 0.500000 -0.250000 0.500000
v -0.500000 0.250000 -0.500000
v -0.500000 0.000000 -0.500000
v -0.500000 -0.250000 -0.500000
v 0.500000 0.250000 -0.250000
v 0.500000 0.000000 -0.250000
v 0.500000 -0.250000 -0.250000
v 0.500000 0.250000 0.000000
v 0.500000 0.000000 0.000000
v 0.500000 -0.250000 0.000000
v 0.500000 0.250000 0.250000
v 0.500000 0.000000 0.250000
v 0.500000 -0.250000 0.250000
v -0.500000 0.250000 0.250000
v -0.500000 0.000000 0.250000
v -0.500000 -0.250000 0.250000
v -0.500000 0.250000 0.000000
v -0.500000 0.000000 0.000000
v -0.500000 -0.250000 0.000000
v -0.500000 0.250000 -0.250000
v -0.500000 0.000000 -0.250000
v -0.500000 -0.250000 -0.250000
v -0.250000 0.250000 -0.500000
v -0.250000 0.000000 -0.500000
v -0.250000 -0.250000 -0.500000
v 0.000000 0.250000 -0.500000
v 0.000000 0.000000 -0.500000
v 0.000000 -0.250000 -0.500000
v 0.250000 0.250000 -0.500000
v 0.250000 0.000000 -0.500000
v 0.250000 -0.250000 -0.500000
v 0.250000 0.250000 0.500000
v 0.250000 0.000000 0.500000
v 0.250000 -0.250000 0.500000
v 0.000000 0.250000 0.500000
v 0.000000 0.000000 0.500000
v 0.000000 -0.250000 0.500000
v -0.250000 0.250000 0.500000
v -0.250000 0.000000 0.500000
v -0.250000 -0.250000 0.500000
vn -0.0000 1.0000 -0.0000
vn -0.0000 -0.0000 1.0000
vn -1.0000 -0.0000 -0.0000
vn -0.0000 -1.0000 -0.0000
vn 1.0000 -0.0000 -0.0000
vn -0.0000 -0.0000 -1.0000
s 0
usemtl Material
f 49//1 16//1 7//1 27//1
f 97//2 27//2 7//2 57//2
f 79//3 18//3 5//3 61//3
f 40//4 19//4 4//4 30//4
f 70//5 15//5 3//5 58//5
f 88//6 33//6 1//6 52//6
f 52//5 1//5 13//5 64//5
f 64//5 13//5 14//5 67//5
f 67//5 14//5 15//5 70//5
f 22//4 2//4 21//4 34//4
f 34//4 21//4 20//4 37//4
f 37//4 20//4 19//4 40//4
f 57//3 7//3 16//3 73//3
f 73//3 16//3 17//3 76//3
f 76//3 17//3 18//3 79//3
f 31//1 5//1 18//1 43//1
f 43//1 18//1 17//1 46//1
f 46//1 17//1 16//1 49//1
f 14//1 48//1 51//1 15//1
f 48//1 47//1 50//1 51//1
f 47//1 46//1 49//1 50//1
f 13//1 45//1 48//1 14//1
f 45//1 44//1 47//1 48//1
f 44//1 43//1 46//1 47//1
f 1//1 33//1 45//1 13//1
f 33//1 32//1 44//1 45//1
f 32//1 31//1 43//1 44//1
f 11//4 39//4 42//4 12//4
f 39//4 38//4 41//4 42//4
f 38//4 37//4 40//4 41//4
f 10//4 36//4 39//4 11//4
f 36//4 35//4 38//4 39//4
f 35//4 34//4 37//4 38//4
f 6//4 24//4 36//4 10//4
f 24//4 23//4 35//4 36//4
f 23//4 22//4 34//4 35//4
f 61//6 5//6 31//6 82//6
f 82//6 31//6 32//6 85//6
f 85//6 32//6 33//6 88//6
f 12//4 42//4 28//4 8//4
f 42//4 41//4 29//4 28//4
f 41//4 40//4 30//4 29//4
f 58//2 3//2 25//2 91//2
f 91//2 25//2 26//2 94//2
f 94//2 26//2 27//2 97//2
f 15//1 51//1 25//1 3//1
f 51//1 50//1 26//1 25//1
f 50//1 49//1 27//1 26//1
f 29//2 96//2 99//2 28//2
f 96//2 95//2 98//2 99//2
f 95//2 94//2 97//2 98//2
f 30//2 93//2 96//2 29//2
f 93//2 92//2 95//2 96//2
f 92//2 91//2 94//2 95//2
f 4//2 60//2 93//2 30//2
f 60//2 59//2 92//2 93//2
f 59//2 58//2 91//2 92//2
f 23//6 87//6 90//6 22//6
f 87//6 86//6 89//6 90//6
f 86//6 85//6 88//6 89//6
f 24//6 84//6 87//6 23//6
f 84//6 83//6 86//6 87//6
f 83//6 82//6 85//6 86//6
f 6//6 63//6 84//6 24//6
f 63//6 62//6 83//6 84//6
f 62//6 61//6 82//6 83//6
f 11//3 78//3 81//3 10//3
f 78//3 77//3 80//3 81//3
f 77//3 76//3 79//3 80//3
f 12//3 75//3 78//3 11//3
f 75//3 74//3 77//3 78//3
f 74//3 73//3 76//3 77//3
f 8//3 55//3 75//3 12//3
f 55//3 56//3 74//3 75//3
f 56//3 57//3 73//3 74//3
f 20//5 69//5 72//5 19//5
f 69//5 68//5 71//5 72//5
f 68//5 67//5 70//5 71//5
f 21//5 66//5 69//5 20//5
f 66//5 65//5 68//5 69//5
f 65//5 64//5 67//5 68//5
f 2//5 54//5 66//5 21//5
f 54//5 53//5 65//5 66//5
f 53//5 52//5 64//5 65//5
f 22//6 90//6 54//6 2//6
f 90//6 89//6 53//6 54//6
f 89//6 88//6 52//6 53//6
f 19//5 72//5 60//5 4//5
f 72//5 71//5 59//5 60//5
f 71//5 70//5 58//5 59//5
f 10//3 81//3 63//3 6//3
f 81//3 80//3 62//3 63//3
f 80//3 79//3 61//3 62//3
f 28//2 99//2 55//2 8//2
f 99//2 98//2 56//2 55//2
f 98//2 97//2 57//2 56//2
